HIERARCHY
ROOT Hips
{
  OFFSET -125.086 92.215 135.881
  CHANNELS 6 Xposition Yposition Zposition Zrotation Xrotation Yrotation
  JOINT LeftUpLeg
  {
    OFFSET 8.64259 1.95398 -2.38835
    CHANNELS 3 Zrotation Xrotation Yrotation
    JOINT LeftLeg
    {
      OFFSET 43.7702 0 0
      CHANNELS 3 Zrotation Xrotation Yrotation
      JOINT LeftFoot
      {
        OFFSET 40.6238 0 0
        CHANNELS 3 Zrotation Xrotation Yrotation
        JOINT LeftToeBase
        {
          OFFSET 12.7242 0 0
          CHANNELS 3 Zrotation Xrotation Yrotation
          End Site
          {
            OFFSET 0 0 0
          }
        }
      }
    }
  }
  JOINT RightUpLeg
  {
    OFFSET -8.2249 1.95398 -2.59336
    CHANNELS 3 Zrotation Xrotation Yrotation
    JOINT RightLeg
    {
      OFFSET 43.5653 0 0
      CHANNELS 3 Zrotation Xrotation Yrotation
      JOINT RightFoot
      {
        OFFSET 40.6238 0 0
        CHANNELS 3 Zrotation Xrotation Yrotation
        JOINT RightToeBase
        {
          OFFSET 12.7242 0 0
          CHANNELS 3 Zrotation Xrotation Yrotation
          End Site
          {
            OFFSET 0 0 0
          }
        }
      }
    }
  }
  JOINT Spine
  {
    OFFSET 0.165834 0.87714 6.61349
    CHANNELS 3 Zrotation Xrotation Yrotation
    JOINT Spine1
    {
      OFFSET 7.38963 1.71661e-005 0
      CHANNELS 3 Zrotation Xrotation Yrotation
      JOINT Spine2
      {
        OFFSET 11.9445 1.14441e-005 0
        CHANNELS 3 Zrotation Xrotation Yrotation
        JOINT Spine3
        {
          OFFSET 14.7254 4.19617e-005 0
          CHANNELS 3 Zrotation Xrotation Yrotation
          JOINT Spine4
          {
            OFFSET 10.9679 0 0
            CHANNELS 3 Zrotation Xrotation Yrotation
            JOINT RightShoulder
            {
              OFFSET 2.46616 -1.6653 3.69651
              CHANNELS 3 Zrotation Xrotation Yrotation
              JOINT RightArm
              {
                OFFSET 13.0012 0 0
                CHANNELS 3 Zrotation Xrotation Yrotation
                JOINT RightForeArm
                {
                  OFFSET 28.7848 1.52588e-005 0
                  CHANNELS 3 Zrotation Xrotation Yrotation
                  JOINT RightHand
                  {
                    OFFSET 26.5688 1.52588e-005 0
                    CHANNELS 3 Zrotation Xrotation Yrotation
                    End Site
                    {
                      OFFSET 0 0 0
                    }
                  }
                }
              }
            }
            JOINT LeftShoulder
            {
              OFFSET 2.38034 -1.29275 -3.7523
              CHANNELS 3 Zrotation Xrotation Yrotation
              JOINT LeftArm
              {
                OFFSET 16.3182 6.10352e-005 0
                CHANNELS 3 Zrotation Xrotation Yrotation
                JOINT LeftForeArm
                {
                  OFFSET 27.0901 0 0
                  CHANNELS 3 Zrotation Xrotation Yrotation
                  JOINT LeftHand
                  {
                    OFFSET 24.5451 1.52588e-005 0
                    CHANNELS 3 Zrotation Xrotation Yrotation
                    End Site
                    {
                      OFFSET 0 0 0
                    }
                  }
                }
              }
            }
            JOINT Neck
            {
              OFFSET 5.0226 -0.0266342 0
              CHANNELS 3 Zrotation Xrotation Yrotation
              JOINT Head
              {
                OFFSET 6.69363 2.86102e-005 0
                CHANNELS 3 Zrotation Xrotation Yrotation
                End Site
                {
                  OFFSET 0 0 0
                }
              }
            }
          }
        }
      }
    }
  }
}
MOTION
Frames:	12
Frame Time:	0.0416667
160.604 16.0615 27.7186 -6.10562 -9.10295 -91.4785 -171.724 10.8519 101.38 -25.0289 -2.7786 3.533 62.9694 1.99597 -28.6072 83.0553 2.25661 18.6991 173.872 7.32346 74.5921 -25.295 2.05843 -5.44604 59.3364 3.15751 37.0252 92.1293 8.44385 38.08 -0.474724 7.1158 -90.323 12.64 -1.09685 -0.516738 0.969449 -1.11852 -0.467982 -21.5675 -0.890853 -0.822515 -1.55487 -0.890846 -0.822524 102.383 -10.9712 -81.468 38.8786 66.857 -81.6485 -21.0837 -7.13478 -108.242 -22.9943 -0.254764 -3.94085 -81.2769 -15.4516 88.1335 -35.2949 -62.1789 -83.6089 21.6155 0.462075 -98.7501 14.8258 -1.06778 -10.8258 43.5036 25.473 64.051 -30.3632 1.71667 -56.694 
160.631 16.119 27.8788 -5.7155 -8.41166 -91.8063 -171.764 10.8932 100.877 -25.0124 -3.38853 3.30832 63.6966 2.14283 -28.4295 87.6275 -2.04209 7.47055 173.912 8.16109 74.0935 -25.6522 0.136787 -5.51695 59.8037 2.87645 35.9918 92.5178 7.39236 35.8479 -0.417711 6.97035 -90.2425 12.9318 -0.945622 -0.370389 1.26114 -0.961012 -0.328399 -21.2757 -0.79059 -0.637476 -1.263 -0.790603 -0.637462 102.433 -10.82 -81.3281 38.0068 65.9093 -80.2863 -24.1654 -6.11348 -108.765 -20.9214 -0.648171 -1.64787 -81.6972 -14.497 86.8974 -34.7027 -62.8859 -81.8567 22.9108 0.314068 -98.4363 12.375 -0.992614 -11.3348 31.9933 15.1575 56.4884 -16.3971 -5.15796 -48.6299 
160.613 16.0616 27.8562 -5.5618 -8.14502 -91.8822 -171.577 10.8304 100.852 -24.8413 -3.28434 3.14761 63.5994 2.11641 -28.1821 87.1227 -1.72576 8.25597 174.008 8.34013 74.0374 -25.5994 0.0351215 -5.5856 59.6587 2.89792 36.1773 92.946 7.40414 35.6987 -0.362799 6.85632 -90.2204 13.1601 -0.826103 -0.338219 1.48938 -0.840189 -0.301527 -21.047 -0.686264 -0.570862 -1.03434 -0.686274 -0.570863 101.923 -9.78951 -82.8426 34.9812 66.7869 -75.7286 -25.2472 -5.84184 -109.471 -22.0386 -0.931344 -0.310528 -82.1271 -14.2695 85.7491 -33.2594 -63.1049 -79.7874 23.668 0.351955 -98.8292 12.5629 -0.721773 -9.18264 6.88742 -0.468053 55.7703 12.7992 -18.9119 -44.7501 
160.595 16.0109 27.8331 -5.5948 -7.64569 -91.8093 -171.238 10.6119 101.023 -24.715 -3.26372 3.01733 63.5363 2.08348 -27.9795 86.9244 -1.83982 7.97233 174.211 8.39196 74.1642 -25.638 -0.146577 -5.70996 59.7875 2.85701 36.256 92.6178 7.40734 35.8331 -0.366503 6.90422 -90.1989 13.0646 -0.823168 -0.296706 1.39383 -0.8354 -0.260213 -21.1426 -0.695921 -0.530398 -1.12998 -0.695925 -0.530387 101.876 -9.59708 -82.9977 37.7938 66.5532 -77.9265 -25.9968 -5.74275 -109.479 -20.8946 -0.858258 -0.449556 -81.617 -13.2184 86.842 -35.4728 -63.1966 -81.3194 23.9347 0.411228 -98.8851 12.1784 -0.713856 -9.24955 14.4132 3.50776 49.4024 6.97507 -13.9982 -39.4144 
160.596 15.9319 27.8443 -5.6116 -7.08362 -91.772 -171.001 10.3704 101.107 -24.6826 -3.53127 2.91998 63.7854 2.12787 -27.9497 86.9715 -1.78633 8.103 174.406 8.43106 74.2102 -25.5711 -0.166187 -5.83827 59.8044 2.86021 36.569 91.6234 7.36272 36.1405 -0.359381 6.95638 -90.1596 12.9607 -0.789976 -0.222994 1.28994 -0.799051 -0.188015 -21.2466 -0.686448 -0.450124 -1.23396 -0.686442 -0.450116 102.069 -9.63623 -82.4044 39.4321 65.8655 -79.6715 -25.8329 -5.93096 -109.624 -22.2745 -0.996503 -0.0265929 -81.0497 -11.8476 88.0848 -37.7718 -63.0697 -82.7999 24.2907 0.493988 -99.0011 12.2091 -0.630632 -8.58961 18.2466 4.32539 41.4527 6.0117 -11.2443 -31.9635 
160.553 15.8463 27.8483 -5.60181 -6.52917 -91.6849 -170.651 10.1727 101.276 -24.5447 -3.53131 2.77467 63.6664 2.05327 -27.7921 87.6034 -1.88996 7.88093 174.609 8.43246 74.3393 -25.4283 -0.525531 -5.94411 59.7483 2.79986 36.4046 91.7649 7.40159 36.1615 -0.367129 7.00469 -90.1257 12.8642 -0.789172 -0.156491 1.19347 -0.795288 -0.121599 -21.3432 -0.705667 -0.386444 -1.33056 -0.70565 -0.386433 102.153 -8.83294 -82.1468 42.6415 65.14 -81.6847 -24.8354 -6.32985 -109.347 -21.5201 -0.706915 -1.39872 -80.4912 -10.6987 89.4118 -39.8796 -63.027 -84.3462 23.884 0.651149 -98.9048 11.8463 -0.616584 -8.58855 23.3568 5.37009 34.5367 3.08902 -8.40243 -26.1077 
160.527 15.7881 27.8165 -5.43961 -5.95063 -91.6957 -170.351 10.12 101.333 -24.4983 -3.70498 2.58305 63.7411 2.01256 -27.6402 87.1538 -1.84308 7.97434 174.808 8.65176 74.3505 -25.3372 -0.82669 -6.0338 59.681 2.76589 36.5692 92.1308 7.21964 35.6505 -0.373768 7.04597 -90.0719 12.7821 -0.776635 -0.0512309 1.11136 -0.77815 -0.0170013 -21.4255 -0.725319 -0.282276 -1.41283 -0.725334 -0.282288 102.261 -8.87975 -81.811 46.0955 64.4345 -84.7091 -26.0381 -6.19175 -109.549 -20.8604 -0.802268 -0.75256 -79.8062 -9.381 91.1473 -42.4153 -62.6106 -86.2376 22.9871 0.884043 -98.8706 12.5383 -0.645902 -8.61146 29.6664 6.32801 27.8725 -1.42169 -5.5505 -20.857 
160.502 15.7594 27.7885 -5.43904 -5.45003 -91.5918 -169.948 9.926 101.536 -24.2982 -3.64905 2.39527 63.5636 1.96075 -27.3998 87.2368 -2.02671 7.53777 174.997 8.74132 74.5108 -25.3575 -1.22903 -6.1185 59.645 2.7279 36.3444 91.8453 7.31441 35.9542 -0.374649 7.1164 -90.0405 12.6413 -0.763461 0.00861286 0.970591 -0.762338 0.0421881 -21.5663 -0.730757 -0.22125 -1.55362 -0.730746 -0.221258 102.338 -8.18719 -81.5555 49.7932 63.8227 -87.3081 -25.3212 -6.64872 -109.44 -20.7564 -0.573139 -2.02326 -79.2556 -7.98494 92.5791 -45.461 -62.3471 -88.2502 22.7581 1.0307 -99.1066 12.2735 -0.660205 -8.79966 35.2062 6.57254 22.476 -5.63914 -3.58536 -16.2839 
160.537 15.7411 27.7911 -5.58817 -5.14359 -91.5531 -169.744 9.75276 101.646 -24.3038 -4.0132 2.3142 63.3946 1.84783 -27.6819 87.7242 -2.08728 7.41917 175.099 8.67863 74.5661 -25.3522 -1.34992 -6.18158 59.4465 2.73821 36.401 91.7155 7.57425 36.527 -0.396402 7.19488 -89.9958 12.4847 -0.785485 0.0988142 0.81403 -0.780415 0.133298 -21.723 -0.77888 -0.141859 -1.71036 -0.778886 -0.141842 102.389 -7.99362 -81.392 52.2483 63.4301 -89.2253 -26.3048 -6.61413 -109.801 -21.1888 -0.805543 -0.80401 -78.7805 -6.9825 93.9068 -47.4834 -62.0341 -89.984 22.5614 1.15199 -99.0696 12.6961 -0.633682 -8.47489 36.1777 5.85883 18.9721 -5.01762 -2.95511 -13.5333 
160.509 15.7707 27.7525 -5.69221 -5.0132 -91.2885 -169.505 9.86914 101.91 -24.6686 -3.97965 2.27634 63.7456 1.87085 -27.6134 87.3802 -1.60996 8.53891 175.181 8.50686 74.8701 -25.2356 -1.41375 -6.11394 59.4489 2.66439 36.1347 91.9519 7.38184 36.0463 -0.422283 7.30391 -89.976 12.2668 -0.827874 0.140707 0.596142 -0.820853 0.176995 -21.9411 -0.831905 -0.114636 -1.92844 -0.83188 -0.114634 102.855 -7.30629 -79.8574 56.3395 61.4604 -92.0305 -26.5586 -6.72745 -110.317 -21.7284 -0.83981 -0.731953 -78.2291 -6.05671 95.5409 -50.1157 -61.4846 -92.505 22.6259 1.23727 -99.0339 12.0908 -0.584543 -8.26192 41.2617 5.56981 14.7587 -8.94441 -1.71556 -10.081 
160.521 15.8254 27.7109 -5.78267 -5.21137 -91.2976 -169.477 9.92266 101.871 -24.7715 -3.80846 2.23261 63.6251 1.89409 -27.1796 87.6161 -1.4229 8.99235 175.189 8.40822 74.9088 -25.2856 -1.40904 -6.13554 59.3281 2.68061 36.1217 92.2307 7.27758 35.728 -0.502009 7.38887 -89.9523 12.0974 -0.975307 0.202396 0.426824 -0.965462 0.245104 -22.1113 -0.991063 -0.100121 -2.09862 -0.99104 -0.100121 103.043 -6.61442 -79.1956 58.8011 60.5205 -93.7811 -26.4433 -6.96962 -110.463 -21.9771 -0.878655 -0.579794 -77.6739 -5.25523 97.2547 -52.6834 -60.7017 -94.61 22.509 1.31658 -99.1633 11.8695 -0.59624 -8.41893 44.283 5.69251 13.1618 -11.075 -1.06287 -9.1644 
160.531 15.8923 27.6985 -5.85671 -5.64799 -91.3211 -169.684 10.0751 101.809 -24.9439 -4.00587 2.34952 63.5336 1.88273 -27.2846 87.4466 -1.70344 8.317 175.06 8.24936 74.8791 -25.2584 -1.53855 -6.07086 59.3074 2.66213 35.8351 93.2266 7.2888 35.3689 -0.577731 7.45564 -89.924 11.9644 -1.11276 0.272226 0.293927 -1.09971 0.320921 -22.2451 -1.14313 -0.0748309 -2.23242 -1.14313 -0.0748624 103.213 -5.98672 -78.5727 60.8612 59.7474 -94.851 -25.7877 -7.32531 -110.572 -22.2151 -0.733934 -1.38698 -77.3936 -4.94787 98.1538 -54.1019 -60.4582 -96.1694 21.9601 1.46762 -99.0502 12.0186 -0.621312 -8.5728 45.9617 5.4953 11.8653 -12.2693 -0.754285 -7.97169 
